<svg xmlns="http://www.w3.org/2000/svg" width="147.590" height="28" viewBox="0 0 147.590 28" fill="none">
  <path d="M 7.289 6.327 L 10.704 15.226 L 10.708 15.223 C 10.742 15.316 10.868 15.344 10.94 15.275 L 18.081 8.485 C 18.192 8.381 18.369 8.499 18.314 8.642 L 10.916 27.909 C 10.871 28.03 10.697 28.03 10.649 27.909 L 0.009 0.195 C -0.026 0.101 0.044 0 0.145 0 L 21.424 0 C 21.524 0 21.594 0.101 21.559 0.195 L 19.315 6.039 C 19.294 6.095 19.238 6.133 19.179 6.133 L 7.424 6.133 C 7.323 6.133 7.254 6.234 7.289 6.327 Z" fill="currentColor" fill-rule="nonzero"></path>
  <path d="M 124.059 7.37 L 147.59 7.37 L 141.381 10.924 L 135.512 10.924 L 129.796 21.592 L 122.687 21.592 L 128.403 10.924 L 122.155 10.924 L 124.059 7.37 Z" fill="currentColor" fill-rule="nonzero"></path>
  <path d="M 66.998 7.37 L 59.374 21.592 L 65.816 21.592 L 73.44 7.37 L 66.998 7.37 Z" fill="currentColor" fill-rule="nonzero"></path>
  <path d="M 73.433 10.924 C 74.486 8.961 76.932 7.37 78.895 7.37 L 98.857 7.37 L 91.23 21.592 L 83.628 21.592 L 85.428 18.235 L 77.724 18.235 L 81.616 15.977 L 86.647 15.977 L 89.455 10.726 L 82.078 10.726 C 81.915 10.733 80.622 10.813 80.084 11.783 L 76.71 18.079 C 75.678 20.021 73.266 21.592 71.327 21.592 L 67.714 21.592 L 73.433 10.924 Z" fill="currentColor" fill-rule="nonzero"></path>
  <path d="M 119.546 7.37 L 100.807 7.37 L 93.221 21.592 L 100.331 21.592 L 106.123 10.726 L 112.568 10.726 C 112.568 10.726 114.212 10.726 113.5 12.04 L 108.406 21.592 L 115.515 21.592 L 121.203 10.924 C 122.252 8.961 121.509 7.37 119.546 7.37 Z" fill="currentColor" fill-rule="nonzero"></path>
  <path d="M 53.818 12.839 L 62.064 12.839 L 59.277 18.079 C 58.245 20.021 55.834 21.592 53.895 21.592 L 35.58 21.592 L 41.313 10.924 C 42.366 8.961 44.815 7.37 46.779 7.37 L 65.34 7.37 L 59.496 10.726 L 49.423 10.726 C 49.423 10.726 48.547 10.723 48.092 11.539 L 44.496 18.235 L 51.963 18.235 L 53.186 15.977 L 48.412 15.977 L 53.818 12.839 Z" fill="currentColor" fill-rule="nonzero"></path>
</svg>